PathFileType	3	(X/Y/Z)	RCH0000002 BBF 08.c3d
DataRate	CameraRate	NumFrames	NumMarkers	Units	OrigDataRate	OrigDataStartFrame	OrigNumFrames
100.0	100.0	9	23	mm	100.0	112	516
Frame#	Time	MAN			LASI			RASI			LPAT			LKNE			LANK			LMED			LTOE			RKNE			RANK			RMED			RHEE			RTOE			LHEE			RPAT			RPSI			T2			LPSI			T10			RTHI			LTHI			RTIB			LTIB			
		X1	Y1	Z1	X2	Y2	Z2	X3	Y3	Z3	X4	Y4	Z4	X5	Y5	Z5	X6	Y6	Z6	X7	Y7	Z7	X8	Y8	Z8	X9	Y9	Z9	X10	Y10	Z10	X11	Y11	Z11	X12	Y12	Z12	X13	Y13	Z13	X14	Y14	Z14	X15	Y15	Z15	X16	Y16	Z16	X17	Y17	Z17	X18	Y18	Z18	X19	Y19	Z19	X20	Y20	Z20	X21	Y21	Z21	X22	Y22	Z22	X23	Y23	Z23	

112	1.110	-1817.43756	89.78279	950.28622	-1862.50115	153.56258	653.02122	-1832.98526	-20.89456	648.02996	-1897.40216	115.98373	376.87006	-1947.31327	174.55212	345.00603	-2018.92127	173.37057	75.90354	-2015.24636	104.63568	95.66173	-1968.57184	137.59299	68.88651	-1775.36925	-33.08941	364.29529	-1902.75348	-38.49090	130.24725	-1900.46682	30.41085	138.49823	-1930.86842	-1.59245	172.24109	-1860.07702	-9.29516	104.53803	-2055.91413	134.35455	111.42693	-1725.14704	13.65505	406.54724	-1950.24172	11.45598	702.62669	-1946.89740	81.76826	987.70363	-1960.38902	80.51019	706.15041	-1938.16662	55.72972	796.72414	-1800.03814	-104.41779	472.13147	-1933.00548	240.73029	471.16703	-1837.10335	-100.56030	273.58812	-1983.18573	239.08483	230.45618	
113	1.120	-1808.51702	88.82098	949.28181	-1856.27125	153.66033	653.14710	-1823.41680	-20.30924	647.33173	-1893.58657	116.68979	376.22815	-1944.68263	174.80451	345.29295	-2018.68799	173.41076	76.50683	-2014.12865	104.81600	96.37235	-1968.00787	138.10447	68.98732	-1758.99369	-31.87115	366.66700	-1876.01932	-38.92279	127.44628	-1875.26826	30.02534	135.47202	-1906.61436	-2.42567	167.96552	-1832.68566	-9.10644	103.61459	-2054.84473	134.20062	112.48352	-1710.89208	15.42309	410.43101	-1941.73848	9.55032	701.18083	-1937.83932	80.42668	987.38884	-1953.06486	78.29551	705.18882	-1930.35694	54.14681	796.36206	-1785.57945	-103.57369	473.79964	-1929.60699	240.58422	471.55403	-1815.63912	-100.19831	273.32681	-1982.21312	239.24807	231.02792	
114	1.130	-1799.51531	87.72434	948.13818	-1849.70596	153.58869	653.19362	-1813.75789	-19.87359	646.43277	-1889.60289	117.24928	375.50743	-1941.83307	174.95527	345.55489	-2018.48629	173.39073	77.14422	-2012.99439	104.95292	97.05926	-1967.49519	138.56684	69.08483	-1743.16852	-30.32392	368.58347	-1849.46526	-39.24647	124.58776	-1850.45358	29.71700	132.30352	-1882.55854	-3.30424	163.54535	-1805.72519	-8.65962	102.53060	-2053.79940	133.97595	113.57245	-1697.29124	17.54411	413.75662	-1933.06995	7.61057	699.50817	-1928.70350	78.98787	986.89978	-1945.47033	76.04653	704.07053	-1922.40389	52.45221	795.82278	-1771.51355	-102.50446	474.95431	-1925.80121	240.35168	471.88178	-1794.32079	-99.61368	272.83175	-1981.17327	239.31079	231.63421	
115	1.140	-1790.42166	86.47674	946.87733	-1842.75808	153.36922	653.14167	-1803.96946	-19.57561	645.34647	-1885.36415	117.67111	374.69325	-1938.68592	174.99931	345.77004	-2018.29403	173.30798	77.83638	-2011.82619	105.03534	97.73737	-1967.02713	138.96526	69.18287	-1727.93865	-28.43459	369.96454	-1823.33675	-39.48099	121.66388	-1826.27051	29.45337	128.98111	-1858.91852	-4.26084	158.99742	-1779.44772	-7.98103	101.25483	-2052.74938	133.67501	114.71911	-1684.37838	20.06567	416.41495	-1924.19082	5.66078	697.63191	-1919.48191	77.42322	986.24117	-1937.55971	73.79130	702.79682	-1914.26634	50.66826	795.10397	-1757.81470	-101.18179	475.55098	-1921.55359	240.03726	472.12800	-1773.26802	-98.79391	272.07992	-1980.00308	239.26633	232.27683	
116	1.150	-1781.22559	85.06731	945.51872	-1835.38976	153.02852	652.96488	-1794.01409	-19.39811	644.08803	-1880.75891	117.96939	373.76138	-1935.13594	174.93551	345.90386	-2018.07653	173.16906	78.60563	-2010.60070	105.06069	98.42495	-1966.58903	139.29018	69.28347	-1713.34047	-26.21304	370.73744	-1797.91551	-39.64550	118.64942	-1802.98610	29.20347	125.48563	-1835.94098	-5.31873	154.33028	-1754.12964	-7.10538	99.74834	-2051.64868	133.30598	115.95275	-1672.17209	23.01246	418.30129	-1915.06014	3.72659	695.57848	-1910.16708	75.70793	985.41567	-1929.29586	71.55957	701.36556	-1905.90466	48.82231	794.20157	-1744.43289	-99.58797	475.56516	-1916.82043	239.64687	472.26197	-1752.62784	-97.73678	271.03801	-1978.60389	239.11529	232.94951	
117	1.160	-1771.91782	83.49147	944.07913	-1827.57341	152.59588	652.63038	-1783.85993	-19.32102	642.67559	-1875.65857	118.15977	372.67763	-1931.05771	174.76497	345.90856	-2017.78815	172.98416	79.47555	-2009.28807	105.03040	99.14219	-1966.15806	139.53441	69.38744	-1699.40133	-23.69538	370.84377	-1773.51310	-39.76097	115.51058	-1780.87886	28.93866	121.79989	-1813.89663	-6.49059	149.55185	-1730.06405	-6.07755	97.97419	-2050.43596	132.88430	117.30538	-1660.67272	26.37824	419.32588	-1905.64471	1.83578	693.37847	-1900.75268	73.82226	984.42474	-1920.65218	69.38380	699.77305	-1897.28250	46.94610	793.11092	-1731.30440	-97.72121	474.99488	-1911.54863	239.18632	472.24337	-1732.57179	-96.45406	269.66850	-1976.84896	238.86272	233.63618	
118	1.170	-1762.49114	81.75163	942.57312	-1819.29232	152.10047	652.10044	-1773.48464	-19.32433	641.13187	-1869.92589	118.25647	371.39887	-1926.31420	174.48931	345.72441	-2017.37257	172.76246	80.47056	-2007.85090	104.94597	99.90997	-1965.70204	139.69062	69.49525	-1686.14026	-20.94527	370.24707	-1750.45887	-39.85179	112.21562	-1760.22746	28.63320	117.91897	-1793.07042	-7.77851	144.67816	-1707.54888	-4.95329	95.90780	-2049.03595	132.42699	118.81045	-1649.86096	30.11883	419.42572	-1895.92241	0.01861	691.06785	-1891.23415	71.75277	983.26994	-1911.61424	67.29957	698.01640	-1888.36888	45.07515	791.82856	-1718.36647	-95.60109	473.86074	-1905.67787	238.65977	472.02270	-1713.29003	-94.97456	267.93735	-1974.59234	238.51554	234.31031	
119	1.180	-1752.94136	79.85771	941.01395	-1810.54083	151.56823	651.33511	-1762.87885	-19.39118	639.48611	-1863.42442	118.27034	369.87585	-1920.76662	174.10945	345.28335	-2016.76170	172.50914	81.61555	-2006.24274	104.80646	100.74920	-1965.17741	139.74968	69.60850	-1673.56964	-18.05313	368.93991	-1729.08253	-39.94649	108.74600	-1741.29572	28.26481	113.85957	-1773.74681	-9.17506	139.74146	-1686.87092	-3.79825	93.54608	-2047.36065	131.94873	120.50137	-1639.69854	34.14760	418.57580	-1885.88517	-1.69244	688.68906	-1881.60932	69.49374	981.95476	-1902.18103	65.34548	696.09617	-1879.14035	43.24814	790.35448	-1705.57336	-93.27344	472.20414	-1899.14492	238.06843	471.54399	-1694.98225	-93.34622	265.82235	-1971.67794	238.08050	234.93575	
120	1.190	-1743.26805	77.82727	939.41488	-1801.32422	151.01897	650.29582	-1752.04870	-19.51077	637.77568	-1856.02810	118.20777	368.05785	-1914.28470	173.62488	344.51479	-2015.87372	172.22437	82.93527	-2004.40642	104.60767	101.68055	-1964.52676	139.70025	69.73145	-1661.69776	-15.13299	366.94962	-1709.69183	-40.07725	105.10587	-1724.31502	27.81504	109.66648	-1756.19049	-10.66498	134.79611	-1668.28637	-2.68494	90.91382	-2045.31033	131.46000	122.40983	-1630.13144	38.33457	416.79823	-1875.54090	-3.26358	686.29185	-1871.87895	67.04853	980.48679	-1892.36562	63.56196	694.01903	-1869.58312	41.50605	788.69461	-1692.91058	-90.81356	470.08434	-1891.88915	237.40972	470.74954	-1677.84606	-91.63655	263.32070	-1967.94872	237.56299	235.46926	
